<?xml version="1.0" encoding="UTF-8" standalone="no"?><svg xmlns="http://www.w3.org/2000/svg" xmlns:xlink="http://www.w3.org/1999/xlink" contentScriptType="application/ecmascript" contentStyleType="text/css" height="350px" preserveAspectRatio="none" style="width:287px;height:350px;" version="1.1" viewBox="0 0 287 350" width="287px" zoomAndPan="magnify"><defs><filter height="300%" id="f1nib9lnphiuqv" width="300%" x="-1" y="-1"><feGaussianBlur result="blurOut" stdDeviation="2.0"/><feColorMatrix in="blurOut" result="blurOut2" type="matrix" values="0 0 0 0 0 0 0 0 0 0 0 0 0 0 0 0 0 0 .4 0"/><feOffset dx="4.0" dy="4.0" in="blurOut2" result="blurOut3"/><feBlend in="SourceGraphic" in2="blurOut3" mode="normal"/></filter></defs><g><rect fill="#DDDDDD" height="335.3281" style="stroke: #A80036; stroke-width: 1.0;" width="272" x="4" y="4"/><text fill="#000000" font-family="sans-serif" font-size="13" font-weight="bold" lengthAdjust="spacingAndGlyphs" textLength="112" x="84" y="17.4951">プログラムの構成</text><line style="stroke: #A80036; stroke-width: 1.0; stroke-dasharray: 5.0,5.0;" x1="48" x2="48" y1="73.9609" y2="286.7188"/><line style="stroke: #A80036; stroke-width: 1.0; stroke-dasharray: 5.0,5.0;" x1="132" x2="132" y1="73.9609" y2="286.7188"/><line style="stroke: #A80036; stroke-width: 1.0; stroke-dasharray: 5.0,5.0;" x1="234" x2="234" y1="73.9609" y2="286.7188"/><rect fill="#FEFECE" filter="url(#f1nib9lnphiuqv)" height="31.6094" style="stroke: #A80036; stroke-width: 1.5;" width="77" x="8" y="37.3516"/><text fill="#000000" font-family="sans-serif" font-size="14" lengthAdjust="spacingAndGlyphs" textLength="63" x="15" y="58.8848">index.html</text><rect fill="#FEFECE" filter="url(#f1nib9lnphiuqv)" height="31.6094" style="stroke: #A80036; stroke-width: 1.5;" width="77" x="8" y="285.7188"/><text fill="#000000" font-family="sans-serif" font-size="14" lengthAdjust="spacingAndGlyphs" textLength="63" x="15" y="307.252">index.html</text><rect fill="#FEFECE" filter="url(#f1nib9lnphiuqv)" height="31.6094" style="stroke: #A80036; stroke-width: 1.5;" width="62" x="99" y="37.3516"/><text fill="#000000" font-family="sans-serif" font-size="14" lengthAdjust="spacingAndGlyphs" textLength="48" x="106" y="58.8848">script.js</text><rect fill="#FEFECE" filter="url(#f1nib9lnphiuqv)" height="31.6094" style="stroke: #A80036; stroke-width: 1.5;" width="62" x="99" y="285.7188"/><text fill="#000000" font-family="sans-serif" font-size="14" lengthAdjust="spacingAndGlyphs" textLength="48" x="106" y="307.252">script.js</text><text fill="#000000" font-family="sans-serif" font-size="14" lengthAdjust="spacingAndGlyphs" textLength="70" x="196" y="70.8848">sample.csv</text><ellipse cx="234" cy="40.3516" fill="#FEFECE" filter="url(#f1nib9lnphiuqv)" rx="12" ry="12" style="stroke: #A80036; stroke-width: 2.0;"/><line style="stroke: #A80036; stroke-width: 2.0;" x1="222" x2="246" y1="54.3516" y2="54.3516"/><text fill="#000000" font-family="sans-serif" font-size="14" lengthAdjust="spacingAndGlyphs" textLength="70" x="196" y="300.252">sample.csv</text><ellipse cx="234" cy="319.3281" fill="#FEFECE" filter="url(#f1nib9lnphiuqv)" rx="12" ry="12" style="stroke: #A80036; stroke-width: 2.0;"/><line style="stroke: #A80036; stroke-width: 2.0;" x1="222" x2="246" y1="333.3281" y2="333.3281"/><polygon fill="#A80036" points="222,102.3125,232,106.3125,222,110.3125,226,106.3125" style="stroke: #A80036; stroke-width: 1.0;"/><line style="stroke: #A80036; stroke-width: 1.0;" x1="48.5" x2="228" y1="106.3125" y2="106.3125"/><text fill="#000000" font-family="sans-serif" font-size="13" lengthAdjust="spacingAndGlyphs" textLength="78" x="55.5" y="101.4561">ファイル選択</text><polygon fill="#A80036" points="59.5,116.3125,49.5,120.3125,59.5,124.3125,55.5,120.3125" style="stroke: #A80036; stroke-width: 1.0;"/><line style="stroke: #A80036; stroke-width: 1.0; stroke-dasharray: 2.0,2.0;" x1="53.5" x2="233" y1="120.3125" y2="120.3125"/><polygon fill="#A80036" points="120,146.6641,130,150.6641,120,154.6641,124,150.6641" style="stroke: #A80036; stroke-width: 1.0;"/><line style="stroke: #A80036; stroke-width: 1.0;" x1="48.5" x2="126" y1="150.6641" y2="150.6641"/><text fill="#000000" font-family="sans-serif" font-size="13" lengthAdjust="spacingAndGlyphs" textLength="52" x="55.5" y="145.8076">選択結果</text><polygon fill="#A80036" points="222,177.0156,232,181.0156,222,185.0156,226,181.0156" style="stroke: #A80036; stroke-width: 1.0;"/><line style="stroke: #A80036; stroke-width: 1.0;" x1="132" x2="228" y1="181.0156" y2="181.0156"/><text fill="#000000" font-family="sans-serif" font-size="13" lengthAdjust="spacingAndGlyphs" textLength="78" x="139" y="176.1592">ファイル読込</text><polygon fill="#A80036" points="143,191.0156,133,195.0156,143,199.0156,139,195.0156" style="stroke: #A80036; stroke-width: 1.0;"/><line style="stroke: #A80036; stroke-width: 1.0; stroke-dasharray: 2.0,2.0;" x1="137" x2="233" y1="195.0156" y2="195.0156"/><line style="stroke: #A80036; stroke-width: 1.0;" x1="132" x2="174" y1="225.3672" y2="225.3672"/><line style="stroke: #A80036; stroke-width: 1.0;" x1="174" x2="174" y1="225.3672" y2="238.3672"/><line style="stroke: #A80036; stroke-width: 1.0;" x1="133" x2="174" y1="238.3672" y2="238.3672"/><line style="stroke: #A80036; stroke-width: 1.0;" x1="133" x2="143" y1="238.3672" y2="234.3672"/><line style="stroke: #A80036; stroke-width: 1.0;" x1="133" x2="143" y1="238.3672" y2="242.3672"/><text fill="#000000" font-family="sans-serif" font-size="13" lengthAdjust="spacingAndGlyphs" textLength="65" x="139" y="220.5107">内容の編集</text><polygon fill="#A80036" points="59.5,264.7188,49.5,268.7188,59.5,272.7188,55.5,268.7188" style="stroke: #A80036; stroke-width: 1.0;"/><line style="stroke: #A80036; stroke-width: 1.0; stroke-dasharray: 2.0,2.0;" x1="53.5" x2="131" y1="268.7188" y2="268.7188"/><text fill="#000000" font-family="sans-serif" font-size="13" lengthAdjust="spacingAndGlyphs" textLength="52" x="65.5" y="263.8623">結果出力</text><!--
@startuml "capter00_README_001"
box "プログラムの構成"
    participant "index.html" as index
    participant "script.js"  as script
    entity "sample.csv"      as sample
end box

index  ->  sample : ファイル選択
sample - -> index
index  ->  script : 選択結果
script ->  sample : ファイル読込
sample - -> script
script ->> script : 内容の編集
script - -> index  : 結果出力
@enduml

PlantUML version 1.2018.03(Fri Apr 06 01:59:15 JST 2018)
(GPL source distribution)
Java Runtime: Java(TM) SE Runtime Environment
JVM: Java HotSpot(TM) Client VM
Java Version: 1.8.0_171-b11
Operating System: Windows 10
OS Version: 10.0
Default Encoding: MS932
Language: ja
Country: JP
--></g></svg>